<?xml version="1.0" encoding="UTF-8" standalone="no"?>
<!DOCTYPE svg PUBLIC "-//W3C//DTD SVG 1.1//EN"
 "http://www.w3.org/Graphics/SVG/1.1/DTD/svg11.dtd">
<!-- Generated by graphviz version 13.1.2 (20250808.2320)
 -->
<!-- Title: UI Pages: 1 -->
<svg width="889pt" height="483pt"
 viewBox="0.00 0.00 889.00 483.00" xmlns="http://www.w3.org/2000/svg" xmlns:xlink="http://www.w3.org/1999/xlink">
<g id="graph0" class="graph" transform="scale(1 1) rotate(0) translate(4 479.2)">
<title>UI</title>
<polygon fill="white" stroke="none" points="-4,4 -4,-479.2 885.29,-479.2 885.29,4 -4,4"/>
<!-- home -->
<g id="node1" class="node">
<title>home</title>
<polygon fill="white" stroke="black" points="354.5,-475.2 246.5,-475.2 246.5,-432 354.5,-432 354.5,-475.2"/>
<text xml:space="preserve" text-anchor="middle" x="300.5" y="-448.58" font-family="Helvetica,sans-Serif" font-size="12.00">Главная</text>
</g>
<!-- clients -->
<g id="node2" class="node">
<title>clients</title>
<polygon fill="white" stroke="black" points="224.5,-395 116.5,-395 116.5,-351.8 224.5,-351.8 224.5,-395"/>
<text xml:space="preserve" text-anchor="middle" x="170.5" y="-374.75" font-family="Helvetica,sans-Serif" font-size="12.00">Клиенты</text>
<text xml:space="preserve" text-anchor="middle" x="170.5" y="-362" font-family="Helvetica,sans-Serif" font-size="12.00">(список)</text>
</g>
<!-- home&#45;&gt;clients -->
<g id="edge1" class="edge">
<title>home&#45;&gt;clients</title>
<path fill="none" stroke="black" d="M265.66,-431.64C250.07,-422.26 231.5,-411.1 214.93,-401.12"/>
<polygon fill="black" stroke="black" points="217.1,-398.35 206.73,-396.19 213.5,-404.35 217.1,-398.35"/>
</g>
<!-- employees -->
<g id="node3" class="node">
<title>employees</title>
<polygon fill="white" stroke="black" points="461.5,-395 353.5,-395 353.5,-351.8 461.5,-351.8 461.5,-395"/>
<text xml:space="preserve" text-anchor="middle" x="407.5" y="-374.75" font-family="Helvetica,sans-Serif" font-size="12.00">Служащие</text>
<text xml:space="preserve" text-anchor="middle" x="407.5" y="-362" font-family="Helvetica,sans-Serif" font-size="12.00">(список)</text>
</g>
<!-- home&#45;&gt;employees -->
<g id="edge2" class="edge">
<title>home&#45;&gt;employees</title>
<path fill="none" stroke="black" d="M329.17,-431.64C341.65,-422.53 356.43,-411.72 369.78,-401.97"/>
<polygon fill="black" stroke="black" points="371.52,-405.03 377.52,-396.31 367.39,-399.38 371.52,-405.03"/>
</g>
<!-- services -->
<g id="node4" class="node">
<title>services</title>
<polygon fill="white" stroke="black" points="790.5,-395 682.5,-395 682.5,-351.8 790.5,-351.8 790.5,-395"/>
<text xml:space="preserve" text-anchor="middle" x="736.5" y="-374.75" font-family="Helvetica,sans-Serif" font-size="12.00">Услуги</text>
<text xml:space="preserve" text-anchor="middle" x="736.5" y="-362" font-family="Helvetica,sans-Serif" font-size="12.00">(список)</text>
</g>
<!-- home&#45;&gt;services -->
<g id="edge3" class="edge">
<title>home&#45;&gt;services</title>
<path fill="none" stroke="black" d="M354.84,-442.85C435.02,-428.47 584.8,-401.61 670.96,-386.16"/>
<polygon fill="black" stroke="black" points="671.45,-389.62 680.67,-384.41 670.21,-382.73 671.45,-389.62"/>
</g>
<!-- contracts -->
<g id="node5" class="node">
<title>contracts</title>
<polygon fill="white" stroke="black" points="363.5,-219.1 255.5,-219.1 255.5,-175.9 363.5,-175.9 363.5,-219.1"/>
<text xml:space="preserve" text-anchor="middle" x="309.5" y="-198.85" font-family="Helvetica,sans-Serif" font-size="12.00">Договоры</text>
<text xml:space="preserve" text-anchor="middle" x="309.5" y="-186.1" font-family="Helvetica,sans-Serif" font-size="12.00">(история)</text>
</g>
<!-- home&#45;&gt;contracts -->
<g id="edge4" class="edge">
<title>home&#45;&gt;contracts</title>
<path fill="none" stroke="black" d="M301.24,-431.81C302.8,-387.6 306.47,-284.01 308.35,-231"/>
<polygon fill="black" stroke="black" points="311.84,-231.21 308.7,-221.09 304.85,-230.96 311.84,-231.21"/>
</g>
<!-- client_details -->
<g id="node6" class="node">
<title>client_details</title>
<polygon fill="white" stroke="black" points="224.5,-314.8 116.5,-314.8 116.5,-271.6 224.5,-271.6 224.5,-314.8"/>
<text xml:space="preserve" text-anchor="middle" x="170.5" y="-294.55" font-family="Helvetica,sans-Serif" font-size="12.00">Клиент</text>
<text xml:space="preserve" text-anchor="middle" x="170.5" y="-281.8" font-family="Helvetica,sans-Serif" font-size="12.00">(карточка)</text>
</g>
<!-- clients&#45;&gt;client_details -->
<g id="edge5" class="edge">
<title>clients&#45;&gt;client_details</title>
<path fill="none" stroke="black" d="M170.5,-351.44C170.5,-343.82 170.5,-335.01 170.5,-326.62"/>
<polygon fill="black" stroke="black" points="174,-326.73 170.5,-316.73 167,-326.73 174,-326.73"/>
</g>
<!-- client_edit -->
<g id="node7" class="node">
<title>client_edit</title>
<polygon fill="white" stroke="black" points="121,-219.1 0,-219.1 0,-175.9 121,-175.9 121,-219.1"/>
<text xml:space="preserve" text-anchor="middle" x="60.5" y="-198.85" font-family="Helvetica,sans-Serif" font-size="12.00">Клиент</text>
<text xml:space="preserve" text-anchor="middle" x="60.5" y="-186.1" font-family="Helvetica,sans-Serif" font-size="12.00">(форма созд./ред.)</text>
</g>
<!-- clients&#45;&gt;client_edit -->
<g id="edge6" class="edge">
<title>clients&#45;&gt;client_edit</title>
<path fill="none" stroke="black" d="M116.1,-361.68C89.95,-353.5 60.94,-339.28 45.25,-314.8 28.98,-289.41 36.64,-254.48 45.98,-229.54"/>
<polygon fill="black" stroke="black" points="49.1,-231.17 49.6,-220.59 42.61,-228.55 49.1,-231.17"/>
<text xml:space="preserve" text-anchor="middle" x="71.88" y="-288.15" font-family="Times,serif" font-size="14.00">добавить</text>
</g>
<!-- employee_details -->
<g id="node8" class="node">
<title>employee_details</title>
<polygon fill="white" stroke="black" points="461.5,-314.8 353.5,-314.8 353.5,-271.6 461.5,-271.6 461.5,-314.8"/>
<text xml:space="preserve" text-anchor="middle" x="407.5" y="-294.55" font-family="Helvetica,sans-Serif" font-size="12.00">Служащий</text>
<text xml:space="preserve" text-anchor="middle" x="407.5" y="-281.8" font-family="Helvetica,sans-Serif" font-size="12.00">(карточка)</text>
</g>
<!-- employees&#45;&gt;employee_details -->
<g id="edge8" class="edge">
<title>employees&#45;&gt;employee_details</title>
<path fill="none" stroke="black" d="M407.5,-351.44C407.5,-343.82 407.5,-335.01 407.5,-326.62"/>
<polygon fill="black" stroke="black" points="411,-326.73 407.5,-316.73 404,-326.73 411,-326.73"/>
</g>
<!-- employee_edit -->
<g id="node9" class="node">
<title>employee_edit</title>
<polygon fill="white" stroke="black" points="621,-219.1 500,-219.1 500,-175.9 621,-175.9 621,-219.1"/>
<text xml:space="preserve" text-anchor="middle" x="560.5" y="-198.85" font-family="Helvetica,sans-Serif" font-size="12.00">Служащий</text>
<text xml:space="preserve" text-anchor="middle" x="560.5" y="-186.1" font-family="Helvetica,sans-Serif" font-size="12.00">(форма созд./ред.)</text>
</g>
<!-- employees&#45;&gt;employee_edit -->
<g id="edge9" class="edge">
<title>employees&#45;&gt;employee_edit</title>
<path fill="none" stroke="black" d="M457.51,-351.47C496.2,-332.28 547.01,-299.79 570.5,-253.6 574.08,-246.55 574.38,-238.43 573.12,-230.62"/>
<polygon fill="black" stroke="black" points="576.55,-229.88 570.73,-221.03 569.75,-231.58 576.55,-229.88"/>
<text xml:space="preserve" text-anchor="middle" x="584.49" y="-288.15" font-family="Times,serif" font-size="14.00">добавить</text>
</g>
<!-- service_details -->
<g id="node10" class="node">
<title>service_details</title>
<polygon fill="white" stroke="black" points="790.5,-314.8 682.5,-314.8 682.5,-271.6 790.5,-271.6 790.5,-314.8"/>
<text xml:space="preserve" text-anchor="middle" x="736.5" y="-294.55" font-family="Helvetica,sans-Serif" font-size="12.00">Услуга</text>
<text xml:space="preserve" text-anchor="middle" x="736.5" y="-281.8" font-family="Helvetica,sans-Serif" font-size="12.00">(карточка)</text>
</g>
<!-- services&#45;&gt;service_details -->
<g id="edge11" class="edge">
<title>services&#45;&gt;service_details</title>
<path fill="none" stroke="black" d="M736.5,-351.44C736.5,-343.82 736.5,-335.01 736.5,-326.62"/>
<polygon fill="black" stroke="black" points="740,-326.73 736.5,-316.73 733,-326.73 740,-326.73"/>
</g>
<!-- service_edit -->
<g id="node11" class="node">
<title>service_edit</title>
<polygon fill="white" stroke="black" points="852,-219.1 731,-219.1 731,-175.9 852,-175.9 852,-219.1"/>
<text xml:space="preserve" text-anchor="middle" x="791.5" y="-198.85" font-family="Helvetica,sans-Serif" font-size="12.00">Услуга</text>
<text xml:space="preserve" text-anchor="middle" x="791.5" y="-186.1" font-family="Helvetica,sans-Serif" font-size="12.00">(форма созд./ред.)</text>
</g>
<!-- services&#45;&gt;service_edit -->
<g id="edge12" class="edge">
<title>services&#45;&gt;service_edit</title>
<path fill="none" stroke="black" d="M769.95,-351.47C783.41,-341.69 798.16,-329.05 808.5,-314.8 825.57,-291.28 826.31,-282.19 831.5,-253.6 832.81,-246.38 834.37,-243.85 831.5,-237.1 830.15,-233.92 828.39,-230.87 826.37,-227.98"/>
<polygon fill="black" stroke="black" points="829.22,-225.94 820.14,-220.49 823.84,-230.41 829.22,-225.94"/>
<text xml:space="preserve" text-anchor="middle" x="854.67" y="-288.15" font-family="Times,serif" font-size="14.00">добавить</text>
</g>
<!-- contract_details -->
<g id="node12" class="node">
<title>contract_details</title>
<polygon fill="white" stroke="black" points="453.5,-138.9 345.5,-138.9 345.5,-95.7 453.5,-95.7 453.5,-138.9"/>
<text xml:space="preserve" text-anchor="middle" x="399.5" y="-118.65" font-family="Helvetica,sans-Serif" font-size="12.00">Договор</text>
<text xml:space="preserve" text-anchor="middle" x="399.5" y="-105.9" font-family="Helvetica,sans-Serif" font-size="12.00">(карточка)</text>
</g>
<!-- contracts&#45;&gt;contract_details -->
<g id="edge14" class="edge">
<title>contracts&#45;&gt;contract_details</title>
<path fill="none" stroke="black" d="M333.62,-175.54C343.81,-166.69 355.83,-156.24 366.8,-146.71"/>
<polygon fill="black" stroke="black" points="368.92,-149.51 374.17,-140.31 364.33,-144.22 368.92,-149.51"/>
</g>
<!-- contract_create -->
<g id="node13" class="node">
<title>contract_create</title>
<polygon fill="white" stroke="black" points="356,-43.2 235,-43.2 235,0 356,0 356,-43.2"/>
<text xml:space="preserve" text-anchor="middle" x="295.5" y="-22.95" font-family="Helvetica,sans-Serif" font-size="12.00">Договор</text>
<text xml:space="preserve" text-anchor="middle" x="295.5" y="-10.2" font-family="Helvetica,sans-Serif" font-size="12.00">(форма созд./ред.)</text>
</g>
<!-- contracts&#45;&gt;contract_create -->
<g id="edge15" class="edge">
<title>contracts&#45;&gt;contract_create</title>
<path fill="none" stroke="black" d="M297.72,-175.61C292.39,-164.97 286.69,-151.63 284,-138.9 278.04,-110.71 282.23,-78.01 287.14,-54.47"/>
<polygon fill="black" stroke="black" points="290.52,-55.4 289.32,-44.87 283.7,-53.85 290.52,-55.4"/>
<text xml:space="preserve" text-anchor="middle" x="305.75" y="-112.25" font-family="Times,serif" font-size="14.00">создать</text>
</g>
<!-- client_details&#45;&gt;contracts -->
<g id="edge17" class="edge">
<title>client_details&#45;&gt;contracts</title>
<path fill="none" stroke="black" stroke-dasharray="5,2" d="M179.18,-271.2C184.84,-259.76 193.23,-246.13 204.25,-237.1 215.89,-227.57 230.09,-220.27 244.25,-214.73"/>
<polygon fill="black" stroke="black" points="245.4,-218.04 253.61,-211.34 243.01,-211.46 245.4,-218.04"/>
<text xml:space="preserve" text-anchor="middle" x="227.88" y="-240.3" font-family="Times,serif" font-size="14.00">история</text>
</g>
<!-- client_details&#45;&gt;client_edit -->
<g id="edge7" class="edge">
<title>client_details&#45;&gt;client_edit</title>
<path fill="none" stroke="black" d="M127.03,-271.29C118.29,-266.12 109.5,-260.16 102,-253.6 93.8,-246.42 86.18,-237.37 79.77,-228.7"/>
<polygon fill="black" stroke="black" points="82.8,-226.93 74.18,-220.78 77.08,-230.97 82.8,-226.93"/>
<text xml:space="preserve" text-anchor="middle" x="129.75" y="-240.3" font-family="Times,serif" font-size="14.00">изменить</text>
</g>
<!-- employee_details&#45;&gt;contracts -->
<g id="edge18" class="edge">
<title>employee_details&#45;&gt;contracts</title>
<path fill="none" stroke="black" stroke-dasharray="5,2" d="M358.04,-271.19C349.86,-266.24 341.95,-260.39 335.5,-253.6 329.1,-246.86 324.03,-238.25 320.13,-229.86"/>
<polygon fill="black" stroke="black" points="323.46,-228.77 316.39,-220.89 317,-231.46 323.46,-228.77"/>
<text xml:space="preserve" text-anchor="middle" x="358" y="-240.3" font-family="Times,serif" font-size="14.00">участие</text>
</g>
<!-- employee_details&#45;&gt;employee_edit -->
<g id="edge10" class="edge">
<title>employee_details&#45;&gt;employee_edit</title>
<path fill="none" stroke="black" d="M408.12,-271.14C409.54,-259.68 413.18,-246.05 422,-237.1 439.55,-219.3 464.56,-209.52 488.51,-204.2"/>
<polygon fill="black" stroke="black" points="489.15,-207.65 498.29,-202.29 487.81,-200.78 489.15,-207.65"/>
<text xml:space="preserve" text-anchor="middle" x="449.75" y="-240.3" font-family="Times,serif" font-size="14.00">изменить</text>
</g>
<!-- service_details&#45;&gt;contracts -->
<g id="edge19" class="edge">
<title>service_details&#45;&gt;contracts</title>
<path fill="none" stroke="black" stroke-dasharray="5,2" d="M682.11,-278.04C673.23,-275.83 664.12,-273.61 655.5,-271.6 558.21,-248.96 444.84,-225.57 375.12,-211.53"/>
<polygon fill="black" stroke="black" points="375.86,-208.11 365.37,-209.57 374.49,-214.98 375.86,-208.11"/>
<text xml:space="preserve" text-anchor="middle" x="593.95" y="-240.3" font-family="Times,serif" font-size="14.00">история</text>
</g>
<!-- service_details&#45;&gt;service_edit -->
<g id="edge13" class="edge">
<title>service_details&#45;&gt;service_edit</title>
<path fill="none" stroke="black" d="M748.71,-271.4C755.99,-259 765.37,-243.01 773.49,-229.18"/>
<polygon fill="black" stroke="black" points="776.33,-231.26 778.37,-220.87 770.29,-227.72 776.33,-231.26"/>
<text xml:space="preserve" text-anchor="middle" x="795.04" y="-240.3" font-family="Times,serif" font-size="14.00">изменить</text>
</g>
<!-- contract_details&#45;&gt;contract_create -->
<g id="edge16" class="edge">
<title>contract_details&#45;&gt;contract_create</title>
<path fill="none" stroke="black" d="M376.16,-95.27C361.71,-82.25 342.96,-65.36 327.18,-51.14"/>
<polygon fill="black" stroke="black" points="329.66,-48.66 319.89,-44.57 324.97,-53.86 329.66,-48.66"/>
<text xml:space="preserve" text-anchor="middle" x="381.48" y="-64.4" font-family="Times,serif" font-size="14.00">изменить</text>
</g>
</g>
</svg>
